<svg width="805" height="452"
    xmlns="http://www.w3.org/2000/svg"
    xmlns:xlink="http://www.w3.org/1999/xlink" xml:space="preserve" overflow="hidden">
    <g transform="translate(-61 -190)">
        <path d="M234.5 200.834C234.5 195.679 238.679 191.5 243.834 191.5L393.167 191.5C398.321 191.5 402.5 195.679 402.5 200.834L402.5 238.167C402.5 243.321 398.321 247.5 393.167 247.5L243.834 247.5C238.679 247.5 234.5 243.321 234.5 238.167Z" stroke="#4D5E5F" stroke-width="2.66667" stroke-linejoin="round" stroke-miterlimit="10" fill="#BBE0E3" fill-rule="evenodd"/>
        <text font-family="Arial,Arial_MSFontService,sans-serif" font-weight="400" font-size="24" transform="translate(263.509 228)">Document</text>
        <path d="M234.5 303.834C234.5 298.679 238.679 294.5 243.834 294.5L393.167 294.5C398.321 294.5 402.5 298.679 402.5 303.834L402.5 341.167C402.5 346.321 398.321 350.5 393.167 350.5L243.834 350.5C238.679 350.5 234.5 346.321 234.5 341.167Z" stroke="#4D5E5F" stroke-width="2.66667" stroke-linejoin="round" stroke-miterlimit="10" fill="#BBE0E3" fill-rule="evenodd"/>
        <text font-family="Arial,Arial_MSFontService,sans-serif" font-weight="400" font-size="24" transform="translate(281.509 330)">&lt;html&gt;</text>
        <path d="M66.5001 405.834C66.5001 400.679 70.6788 396.5 75.8336 396.5L225.167 396.5C230.321 396.5 234.5 400.679 234.5 405.834L234.5 443.167C234.5 448.321 230.321 452.5 225.167 452.5L75.8336 452.5C70.6788 452.5 66.5001 448.321 66.5001 443.167Z" stroke="#4D5E5F" stroke-width="2.66667" stroke-linejoin="round" stroke-miterlimit="10" fill="#BBE0E3" fill-rule="evenodd"/>
        <text font-family="Arial,Arial_MSFontService,sans-serif" font-weight="400" font-size="24" transform="translate(109.509 433)">&lt;head&gt;</text>
        <path d="M402.5 405.834C402.5 400.679 406.679 396.5 411.834 396.5L561.167 396.5C566.321 396.5 570.5 400.679 570.5 405.834L570.5 443.167C570.5 448.321 566.321 452.5 561.167 452.5L411.834 452.5C406.679 452.5 402.5 448.321 402.5 443.167Z" stroke="#4D5E5F" stroke-width="2.66667" stroke-linejoin="round" stroke-miterlimit="10" fill="#BBE0E3" fill-rule="evenodd"/>
        <text font-family="Arial,Arial_MSFontService,sans-serif" font-weight="400" font-size="24" transform="translate(446.176 433)">&lt;body&gt;</text>
        <path d="M66.5001 509.834C66.5001 504.679 70.6788 500.5 75.8336 500.5L225.167 500.5C230.321 500.5 234.5 504.679 234.5 509.834L234.5 547.167C234.5 552.321 230.321 556.5 225.167 556.5L75.8336 556.5C70.6788 556.5 66.5001 552.321 66.5001 547.167Z" stroke="#4D5E5F" stroke-width="2.66667" stroke-linejoin="round" stroke-miterlimit="10" fill="#BBE0E3" fill-rule="evenodd"/>
        <text font-family="Arial,Arial_MSFontService,sans-serif" font-weight="400" font-size="24" transform="translate(117.157 537)">&lt;title&gt;</text>
        <path d="M696.5 528.5C696.5 513.036 709.036 500.5 724.5 500.5L836.5 500.5C851.964 500.5 864.5 513.036 864.5 528.5L864.5 528.5C864.5 543.964 851.964 556.5 836.5 556.5L724.5 556.5C709.036 556.5 696.5 543.964 696.5 528.5Z" stroke="#4D5E5F" stroke-width="2.66667" stroke-linejoin="round" stroke-miterlimit="10" fill="#BBE0E3" fill-rule="evenodd"/>
        <text font-family="Arial,Arial_MSFontService,sans-serif" font-weight="400" font-size="24" transform="translate(731 537)">href</text>
        <text font-family="Arial,Arial_MSFontService,sans-serif" font-weight="400" font-size="24" transform="translate(772.333 537)">=“</text>
        <text font-family="Arial,Arial_MSFontService,sans-serif" font-weight="400" font-size="24" transform="translate(794.333 537)">url</text>
        <text font-family="Arial,Arial_MSFontService,sans-serif" font-weight="400" font-size="24" transform="translate(821 537)">”</text>
        <path d="M503.5 509.834C503.5 504.679 507.679 500.5 512.834 500.5L662.167 500.5C667.321 500.5 671.5 504.679 671.5 509.834L671.5 547.167C671.5 552.321 667.321 556.5 662.167 556.5L512.834 556.5C507.679 556.5 503.5 552.321 503.5 547.167Z" stroke="#4D5E5F" stroke-width="2.66667" stroke-linejoin="round" stroke-miterlimit="10" fill="#BBE0E3" fill-rule="evenodd"/>
        <text font-family="Arial,Arial_MSFontService,sans-serif" font-weight="400" font-size="24" transform="translate(566.608 537)">&lt;a&gt;</text>
        <path d="M311.5 509.834C311.5 504.679 315.679 500.5 320.834 500.5L470.167 500.5C475.321 500.5 479.5 504.679 479.5 509.834L479.5 547.167C479.5 552.321 475.321 556.5 470.167 556.5L320.834 556.5C315.679 556.5 311.5 552.321 311.5 547.167Z" stroke="#4D5E5F" stroke-width="2.66667" stroke-linejoin="round" stroke-miterlimit="10" fill="#BBE0E3" fill-rule="evenodd"/>
        <text font-family="Arial,Arial_MSFontService,sans-serif" font-weight="400" font-size="24" transform="translate(367.216 537)">&lt;h1&gt;</text>
        <rect x="66.5001" y="584.5" width="168" height="56" stroke="#4D5E5F" stroke-width="2.66667" stroke-linejoin="round" stroke-miterlimit="10" fill="#BBE0E3"/>
        <text font-family="Arial,Arial_MSFontService,sans-serif" font-weight="400" font-size="24" transform="translate(76.4872 620)">“A Document”</text>
        <rect x="503.5" y="584.5" width="168" height="56" stroke="#4D5E5F" stroke-width="2.66667" stroke-linejoin="round" stroke-miterlimit="10" fill="#BBE0E3"/>
        <text font-family="Arial,Arial_MSFontService,sans-serif" font-weight="400" font-size="24" transform="translate(526.608 620)">“Some link”</text>
        <rect x="311.5" y="584.5" width="168" height="56" stroke="#4D5E5F" stroke-width="2.66667" stroke-linejoin="round" stroke-miterlimit="10" fill="#BBE0E3"/>
        <text font-family="Arial,Arial_MSFontService,sans-serif" font-weight="400" font-size="24" transform="translate(337.216 621)">“Header 1”</text>
        <path d="M150.5 376.5 486.5 376.5" stroke="#000000" stroke-width="3.33333" stroke-linecap="square" stroke-linejoin="round" stroke-miterlimit="10" fill="none" fill-rule="evenodd"/>
        <path d="M0 0 0.000104987 20.8101" stroke="#000000" stroke-width="3.33333" stroke-linecap="square" stroke-linejoin="round" stroke-miterlimit="10" fill="none" fill-rule="evenodd" transform="matrix(1 0 0 -1 150.5 397.31)"/>
        <path d="M0 0 0.000104987 20.8101" stroke="#000000" stroke-width="3.33333" stroke-linecap="square" stroke-linejoin="round" stroke-miterlimit="10" fill="none" fill-rule="evenodd" transform="matrix(1 0 0 -1 486.5 397.31)"/>
        <path d="M318.5 350.5 318.5 376.26" stroke="#000000" stroke-width="3.33333" stroke-linecap="square" stroke-linejoin="round" stroke-miterlimit="10" fill="none" fill-rule="evenodd"/>
        <path d="M318.5 247.5 318.5 294.07" stroke="#000000" stroke-width="3.33333" stroke-linecap="square" stroke-linejoin="round" stroke-miterlimit="10" fill="none" fill-rule="evenodd"/>
        <path d="M150.5 556.5 150.5 584.229" stroke="#000000" stroke-width="3.33333" stroke-linecap="square" stroke-linejoin="round" stroke-miterlimit="10" fill="none" fill-rule="evenodd"/>
        <path d="M395.5 556.5 395.5 584.521" stroke="#000000" stroke-width="3.33333" stroke-linecap="square" stroke-linejoin="round" stroke-miterlimit="10" fill="none" fill-rule="evenodd"/>
        <path d="M587.5 556.5 587.5 584.229" stroke="#000000" stroke-width="3.33333" stroke-linecap="square" stroke-linejoin="round" stroke-miterlimit="10" fill="none" fill-rule="evenodd"/>
        <path d="M671.5 528.5 696.225 528.5" stroke="#000000" stroke-width="3.33333" stroke-linecap="square" stroke-linejoin="round" stroke-miterlimit="10" fill="none" fill-rule="evenodd"/>
        <path d="M0 0 0.000104987 20.4386" stroke="#000000" stroke-width="3.33333" stroke-linecap="square" stroke-linejoin="round" stroke-miterlimit="10" fill="none" fill-rule="evenodd" transform="matrix(1 0 0 -1 395.5 500.939)"/>
        <path d="M0 0 0.000104987 19.3799" stroke="#000000" stroke-width="3.33333" stroke-linecap="square" stroke-linejoin="round" stroke-miterlimit="10" fill="none" fill-rule="evenodd" transform="matrix(1 0 0 -1 587.5 500.88)"/>
        <path d="M395.5 480.5 588.225 480.5" stroke="#000000" stroke-width="3.33333" stroke-linecap="square" stroke-linejoin="round" stroke-miterlimit="10" fill="none" fill-rule="evenodd"/>
        <path d="M486.5 452.5 486.5 479.69" stroke="#000000" stroke-width="3.33333" stroke-linecap="square" stroke-linejoin="round" stroke-miterlimit="10" fill="none" fill-rule="evenodd"/>
        <path d="M0 0 0.352126 47.6286" stroke="#000000" stroke-width="3.33333" stroke-linecap="square" stroke-linejoin="round" stroke-miterlimit="10" fill="none" fill-rule="evenodd" transform="matrix(-1 0 0 1 150.852 452.5)"/>
    </g>
</svg>